# xmcd
#
# Track frame offsets:
#	150
#	64291
#	114612
#	155033
#	184986
#	227898
#	269277
#
# Disc length: 3876 seconds
#
# Revision: 1
# Processed by: cddbd v1.5.2PL0 Copyright (c) Steve Scherf et al.
# Submitted via: audiograbber 1.83.01
#
DISCID=660f2207
DTITLE=Grateful Dead - 78-11-24 Capitol Theatre, Passaic NJ
DYEAR=1900
DGENRE=
TTITLE0=Estimated Prophet
TTITLE1=Shakedown Street
TTITLE2=Drums
TTITLE3=Ollin Arageed
TTITLE4=Fire On The Mountain
TTITLE5=Sugar Magnolia
TTITLE6=Johnny B Goode
EXTD=
EXTT0=
EXTT1=
EXTT2=
EXTT3=
EXTT4=
EXTT5=
EXTT6=
PLAYORDER=
